<svg width="8" height="8" viewBox="0 0 8 8" fill="none" xmlns="http://www.w3.org/2000/svg">
<path d="M3.29694 0.229931C3.44095 -0.0766419 3.87702 -0.0766428 4.02103 0.22993L4.94 2.18623C4.97965 2.27064 5.04756 2.33855 5.13197 2.3782L7.08827 3.29717C7.39484 3.44118 7.39484 3.87725 7.08827 4.02126L5.13197 4.94023C5.04756 4.97988 4.97965 5.04779 4.94 5.1322L4.02103 7.0885C3.87702 7.39507 3.44095 7.39507 3.29694 7.0885L2.37797 5.1322C2.33832 5.04779 2.27041 4.97988 2.186 4.94023L0.229702 4.02126C-0.0768707 3.87725 -0.0768717 3.44118 0.229701 3.29717L2.186 2.3782C2.27041 2.33855 2.33832 2.27064 2.37797 2.18623L3.29694 0.229931Z" fill="white"/>
</svg>
